# AST/ASF file generated using VICON BodyLanguage
# -----------------------------------------------
:version 1.10
:name VICON
:units
  mass 1.0
  length 0.45
  angle deg
:documentation
   .ast/.asf automatically generated from VICON data using
   VICON BodyBuilder and BodyLanguage model FoxedUp or BRILLIANT.MOD
:root
   order TX TY TZ RX RY RZ
   axis XYZ
   position 0 0 0  
   orientation 0 0 0 
:bonedata
  begin
     id 1 
     name lhipjoint
     direction 0.606768 -0.715223 0.346827 
     length 2.41543 
     axis 0 0 0  XYZ
  end
  begin
     id 2 
     name lfemur
     direction 0.34202 -0.939693 0  
     length 7.2778  
     axis 0 0 20  XYZ
    dof rx ry rz
    limits (-160.0 20.0)
           (-70.0 70.0)
           (-60.0 70.0)
  end
  begin
     id 3 
     name ltibia
     direction 0.34202 -0.939693 0   
     length 7.61811   
     axis 0 0 20   XYZ
    dof rx
    limits (-10.0 170.0)
  end
  begin
     id 4 
     name lfoot
     direction 0.0823924 -0.226371 0.97055   
     length 2.33618   
     axis -90 7.62852e-016 20   XYZ
    dof rx rz
    limits (-45.0 90.0)
           (-70.0 20.0)
  end
  begin
     id 5 
     name ltoes
     direction 1.53554e-011 -4.21934e-011 1   
     length 1.17015   
     axis -90 7.62852e-016 20   XYZ
    dof rx
    limits (-90.0 20.0)
  end
  begin
     id 6 
     name rhipjoint
     direction -0.6077 -0.714582 0.346516   
     length 2.4176  
     axis 0 0 0  XYZ 
  end
  begin
     id 7 
     name rfemur
     direction -0.34202 -0.939693 0   
     length 7.28127   
     axis 0 0 -20   XYZ
    dof rx ry rz
    limits (-160.0 20.0)
           (-70.0 70.0)
           (-70.0 60.0)
  end
  begin
     id 8 
     name rtibia
     direction -0.34202 -0.939693 0   
     length 7.77648   
     axis 0 0 -20   XYZ
    dof rx
    limits (-10.0 170.0)
 end
 begin
     id 9 
     name rfoot
     direction -0.0809463 -0.222398 0.97159   
     length 2.37533  
     axis -90 -7.62852e-016 -20   XYZ
    dof rx rz
    limits (-45.0 90.0)
           (-20.0 70.0)
  end
  begin
     id 10 
     name rtoes
     direction -1.53568e-011 -4.21714e-011 1   
     length 1.18972   
     axis -90 -7.62852e-016 -20   XYZ
    dof rx
    limits (-90.0 20.0)
  end
  begin
     id 11 
     name lowerback
     direction 0.010968 0.991932 -0.126297   
     length 2.21698   
     axis 0 0 0   XYZ
    dof rx ry rz
    limits (-20.0 45.0)
           (-30.0 30.0)
           (-30.0 30.0)
  end
  begin
     id 12 
     name upperback
     direction 0.0167007 0.997503 -0.0686276   
     length 2.22371   
     axis 0 0 0   XYZ
    dof rx ry rz
    limits (-20.0 45.0)
           (-30.0 30.0)
           (-30.0 30.0)
  end
  begin
     id 13 
     name thorax
     direction 0.0111721 0.999885 -0.0102878   
     length 2.25242   
     axis 0 0 0   XYZ
    dof rx ry rz
    limits (-20.0 45.0)
           (-30.0 30.0)
           (-30.0 30.0)
  end
  begin
     id 14 
     name lowerneck
     direction -0.0120265 0.990428 0.137508   
     length 1.57674   
     axis 0 0 0   XYZ
    dof rx ry rz
    limits (-20.0 45.0)
           (-30.0 30.0)
           (-30.0 30.0)
  end
  begin
     id 15 
     name upperneck
     direction 0.0175669 0.998907 0.0433089   
     length 1.5618   
     axis 0 0 0   XYZ
    dof rx ry rz
    limits (-20.0 45.0)
           (-30.0 30.0)
           (-30.0 30.0)
  end
  begin
     id 16
     name head
     direction 0.00754609 0.99997 0.00185367  
     length 1.60579  
     axis 0 0 0   XYZ
    dof rx ry rz
    limits (-20.0 45.0)
           (-30.0 30.0)
           (-30.0 30.0)
  end
  begin
     id 17 
     name lclavicle
     direction 0.885866 0.429166 -0.176231  
     length 3.44967  
     axis 0 0 0   XYZ
    dof ry rz
    limits (-20.0 10.0)
           (0.0 20.0)
  end
  begin
     id 18 
     name lhumerus
     direction 1 -4.48973e-011 -1.90255e-027   
     length 5.20607   
     axis 180 -30 -90   XYZ
    dof rx ry rz
    limits (-60.0 90.0)
           (-90.0 90.0)
           (-90.0 90.0)
  end
  begin
     id 19
     name lradius
     direction 1 -4.48956e-011 9.87925e-027   
     length 3.39961   
     axis 180 -30 -90   XYZ
    dof rx
    limits (-10.0 170.0)
  end
  begin
     id 20
     name lwrist
     direction 1 -4.48985e-011 1.73247e-026   
     length 1.6998   
     axis -9.60847e-015 90 90   XYZ
    dof ry
    limits (-180.0 0.0)
 end
  begin
     id 21 
     name lhand
     direction 1 -4.48798e-011 3.46119e-026   
     length 0.519693   
     axis -2.21073e-014 90 90   XYZ
    dof rx rz
    limits (-90.0 90.0)
           (-45.0 45.0)
  end
  begin
     id 22 
     name lfingers
     direction 1 -4.48938e-011 6.92797e-026   
     length 0.41899   
     axis -4.42155e-014 90 90   XYZ
    dof rx
    limits (0.0 90.0)
  end
  begin
     id 23
     name lthumb
     direction 0.707107 -6.34952e-011 0.707107   
     length 0.601588   
     axis -90 45 6.0103e-014   XYZ
    dof rx rz
    limits (-45.0 45.0)
           (-45.0 45.0)
  end
  begin
     id 24 
     name rclavicle
     direction -0.866736 0.456792 -0.200276   
     length 3.45032  
     axis 0 0 0   XYZ 
    dof ry rz
    limits (-10.0 20.0)
           (-20.0 0.0)
  end
  begin
     id 25 
     name rhumerus
     direction -1 -4.4897e-011 8.65094e-028  
     length 5.32214   
     axis 180 30 90   XYZ
    dof rx ry rz
    limits (-90.0 60.0)
           (-90.0 90.0)
           (-90.0 90.0)
  end
  begin
     id 26 
     name rradius
     direction -1 -4.48987e-011 1.08427e-026   
     length 3.51208   
     axis 180 30 90   XYZ
    dof rx
    limits (-10.0 170.0)
  end
  begin
     id 27 
     name rwrist
     direction -1 -4.48961e-011 1.73222e-026   
     length 1.75604   
     axis -9.60847e-015 -90 -90   XYZ
    dof ry
    limits (-180.0 0.0)
  end
  begin
     id 28
     name rhand
     direction -1 -4.48895e-011 3.46314e-026   
     length 0.586681   
     axis -2.21073e-014 -90 -90   XYZ
    dof rx rz
    limits (-90.0 90.0)
           (-45.0 45.0)
  end
  begin
     id 29
     name rfingers
     direction -1 -4.48968e-011 6.92916e-026   
     length 0.472997   
     axis -4.42155e-014 -90 -90   XYZ
    dof rx
    limits (0.0 90.0)
  end
  begin
     id 30
     name rthumb
     direction -0.707107 -6.34848e-011 0.707107   
     length 0.679133   
     axis -90 -45 -6.0103e-014   XYZ
    dof rx rz
    limits (-45.0 45.0)
           (-45.0 45.0)
  end
:hierarchy
  begin
    root lhipjoint rhipjoint lowerback
    lhipjoint lfemur
    lfemur ltibia
    ltibia lfoot
    lfoot ltoes
    rhipjoint rfemur
    rfemur rtibia
    rtibia rfoot
    rfoot rtoes
    lowerback upperback
    upperback thorax
    thorax lowerneck lclavicle rclavicle
    lowerneck upperneck
    upperneck head
    lclavicle lhumerus
    lhumerus lradius
    lradius lwrist
    lwrist lhand lthumb
    lhand lfingers
    rclavicle rhumerus
    rhumerus rradius
    rradius rwrist
    rwrist rhand rthumb
    rhand rfingers
  end

#!OML:ASF H:\Dans Jumps\Project 1\Capture day 1\Session 1\subject.ASF
:FULLY-SPECIFIED
:DEGREES
22
root 0.0525066 17.2743 -15.203 15.0245 -1.02661 -2.48495
lowerback 9.8443 -0.22111 0.668197
upperback 8.33287 -0.276892 1.42499
thorax 3.16529 -0.152417 1.12188
lowerneck -9.47281 0.653739 -0.840421
upperneck 22.9918 1.14738 -0.426708
head 8.72154 0.416671 0.114308
rclavicle -9.0447e-015 5.70264e-015
rhumerus -28.9075 -6.30973 -83.2372
rradius 34.5457
rwrist 18.2783
rhand -20.6756 -27.3369
rfingers 7.12502
rthumb 5.6876 -57.2406
lclavicle -9.0447e-015 5.70264e-015
lhumerus -28.2241 -8.71995 92.1417
lradius 32.0717
lwrist 17.9539
lhand -29.3081 -3.54165
lfingers 7.12502
lthumb -2.64924 26.4216
rfemur -34.7648 -3.99268 21.7291
rtibia 34.5358
rfoot -13.7228 1.77504
rtoes 11.9229
lfemur -34.5076 8.3179 -18.63
ltibia 34.4278
lfoot -12.9931 3.69976
ltoes 4.22792
23
root 0.0488446 17.28 -15.1952 14.9847 -1.00257 -2.49126
lowerback 9.77965 -0.216075 0.681196
upperback 8.3241 -0.270376 1.43548
thorax 3.19123 -0.148795 1.12475
lowerneck -9.54411 0.649733 -0.8512
upperneck 23.1133 1.14001 -0.400523
head 8.77626 0.414008 0.124827
rclavicle -1.03741e-014 5.56597e-015
rhumerus -28.9039 -6.2215 -83.3202
rradius 34.603
rwrist 18.2481
rhand -20.6231 -27.3096
rfingers 7.12502
rthumb 5.73826 -57.2119
lclavicle -1.03741e-014 5.56597e-015
lhumerus -28.1142 -8.65485 92.1084
lradius 32.13
lwrist 17.5312
lhand -29.5433 -3.52117
lfingers 7.12502
lthumb -2.87643 26.4392
rfemur -34.6115 -4.01092 21.7479
rtibia 34.3924
rfoot -13.6909 1.77864
rtoes 11.9714
lfemur -34.3583 8.2831 -18.5901
ltibia 34.2872
lfoot -12.9544 3.71169
ltoes 4.21917
24
root 0.0453272 17.2857 -15.1876 14.9458 -0.977523 -2.49653
lowerback 9.7129 -0.21185 0.692935
upperback 8.31465 -0.265065 1.44701
thorax 3.21763 -0.145859 1.12949
lowerneck -9.62744 0.647282 -0.856826
upperneck 23.248 1.13569 -0.381334
head 8.83793 0.412389 0.132519
rclavicle -3.57812e-015 -6.21202e-016
rhumerus -28.8986 -6.12516 -83.4066
rradius 34.6633
rwrist 18.2084
rhand -20.5622 -27.2784
rfingers 7.12502
rthumb 5.79703 -57.1791
lclavicle -3.57812e-015 -6.21202e-016
lhumerus -27.9971 -8.60273 92.0697
lradius 32.1671
lwrist 17.1397
lhand -29.7025 -3.35815
lfingers 7.12502
lthumb -3.03019 26.6001
rfemur -34.4608 -4.03153 21.7657
rtibia 34.2516
rfoot -13.6621 1.78262
rtoes 12.0213
lfemur -34.2121 8.25491 -18.5543
ltibia 34.1479
lfoot -12.9184 3.7165
ltoes 4.2137
25
root 0.0419783 17.2913 -15.18 14.9064 -0.953693 -2.49972
lowerback 9.64694 -0.208064 0.700947
upperback 8.30425 -0.260585 1.45969
thorax 3.24264 -0.143544 1.13759
lowerneck -9.72124 0.645069 -0.861606
upperneck 23.3979 1.13286 -0.36684
head 8.90701 0.410947 0.138732
rclavicle -4.96962e-017 -6.4605e-016
rhumerus -28.8913 -6.01648 -83.4957
rradius 34.7249
rwrist 18.1584
rhand -20.5129 -27.2401
rfingers 7.12502
rthumb 5.84462 -57.1395
lclavicle -4.96962e-017 -6.4605e-016
lhumerus -27.8771 -8.57322 92.0334
lradius 32.1837
lwrist 16.83
lhand -29.7827 -3.07906
lfingers 7.12502
lthumb -3.1076 26.878
rfemur -34.3115 -4.05279 21.7809
rtibia 34.1138
rfoot -13.6355 1.78645
rtoes 12.0649
lfemur -34.0662 8.23417 -18.5236
ltibia 34.0082
lfoot -12.8836 3.71593
ltoes 4.20344
26
root 0.0388207 17.2968 -15.1725 14.866 -0.930654 -2.49808
lowerback 9.57962 -0.20477 0.705036
upperback 8.29357 -0.257014 1.47131
thorax 3.26815 -0.141831 1.14684
lowerneck -9.81786 0.643505 -0.868356
upperneck 23.5543 1.13075 -0.349713
head 8.97901 0.409893 0.146291
rclavicle 1.09332e-015 -1.46604e-015
rhumerus -28.8775 -5.90464 -83.5886
rradius 34.7809
rwrist 18.1098
rhand -20.4625 -27.2072
rfingers 7.12502
rthumb 5.89334 -57.1052
lclavicle 1.09332e-015 -1.46604e-015
lhumerus -27.7578 -8.57021 91.9985
lradius 32.1885
lwrist 16.6304
lhand -29.8647 -2.90493
lfingers 7.12502
lthumb -3.18676 27.051
rfemur -34.163 -4.07457 21.7899
rtibia 33.9793
rfoot -13.6102 1.78941
rtoes 12.1071
lfemur -33.9181 8.21699 -18.5
ltibia 33.8653
lfoot -12.8487 3.71278
ltoes 4.19677
27
root 0.0358683 17.3022 -15.1649 14.8195 -0.910762 -2.49148
lowerback 9.51886 -0.202447 0.701281
upperback 8.28341 -0.255127 1.48274
thorax 3.29068 -0.141325 1.16043
lowerneck -9.91632 0.643758 -0.873086
upperneck 23.7193 1.13233 -0.338948
head 9.05458 0.410009 0.151779
rclavicle 4.19933e-015 -4.96962e-016
rhumerus -28.8567 -5.78451 -83.6844
rradius 34.8299
rwrist 18.0644
rhand -20.42 -27.1768
rfingers 7.12502
rthumb 5.93434 -57.0737
lclavicle 4.19933e-015 -4.96962e-016
lhumerus -27.6458 -8.59016 91.9682
lradius 32.1915
lwrist 16.5749
lhand -29.8945 -2.73772
lfingers 7.12502
lthumb -3.21558 27.2178
rfemur -34.0093 -4.09518 21.792
rtibia 33.8478
rfoot -13.5867 1.79142
rtoes 12.1478
lfemur -33.7611 8.20525 -18.4834
ltibia 33.7183
lfoot -12.8146 3.70841
ltoes 4.18045
28
root 0.0332364 17.3076 -15.1572 14.7678 -0.895776 -2.47801
lowerback 9.4604 -0.200296 0.690003
upperback 8.27529 -0.253904 1.49222
thorax 3.31416 -0.141456 1.17629
lowerneck -10.0137 0.644165 -0.881662
upperneck 23.8871 1.13444 -0.326453
head 9.13111 0.410194 0.158588
rclavicle -5.91384e-015 -1.93815e-015
rhumerus -28.8291 -5.66299 -83.7826
rradius 34.8763
rwrist 18.0301
rhand -20.3723 -27.154
rfingers 7.12502
rthumb 5.98039 -57.0496
lclavicle -5.91384e-015 -1.93815e-015
lhumerus -27.5414 -8.63351 91.9443
lradius 32.1985
lwrist 16.6949
lhand -29.9928 -2.79593
lfingers 7.12502
lthumb -3.31051 27.1581
rfemur -33.8504 -4.11545 21.7838
rtibia 33.7193
rfoot -13.5654 1.79759
rtoes 12.1989
lfemur -33.5952 8.19805 -18.4763
ltibia 33.5671
lfoot -12.7827 3.70398
ltoes 4.15524
29
root 0.030966 17.313 -15.1495 14.7106 -0.884903 -2.46307
lowerback 9.40602 -0.19862 0.677128
upperback 8.26984 -0.253376 1.5008
thorax 3.33827 -0.141998 1.19216
lowerneck -10.111 0.64577 -0.891088
upperneck 24.0535 1.13827 -0.313624
head 9.20734 0.411133 0.165858
rclavicle 4.99446e-015 -1.93318e-014
rhumerus -28.7948 -5.54331 -83.8825
rradius 34.919
rwrist 18.0107
rhand -20.3232 -27.1265
rfingers 7.12502
rthumb 6.02781 -57.0207
lclavicle 4.99446e-015 -1.93318e-014
lhumerus -27.4443 -8.69375 91.926
lradius 32.2138
lwrist 16.9947
lhand -30.1259 -2.97166
lfingers 7.12502
lthumb -3.43904 26.9803
rfemur -33.6858 -4.13624 21.7718
rtibia 33.5932
rfoot -13.5464 1.80881
rtoes 12.266
lfemur -33.4206 8.19465 -18.4726
ltibia 33.4138
lfoot -12.7518 3.70146
ltoes 4.11716
30
root 0.0291661 17.3184 -15.142 14.652 -0.875806 -2.44744
lowerback 9.35251 -0.198412 0.665047
upperback 8.26705 -0.254763 1.50912
thorax 3.36475 -0.143466 1.20745
lowerneck -10.2148 0.647946 -0.896657
upperneck 24.2212 1.14362 -0.306639
head 9.28552 0.412472 0.170693
rclavicle -2.75814e-015 -6.80837e-015
rhumerus -28.7502 -5.42754 -83.9825
rradius 34.9557
rwrist 18.0067
rhand -20.2739 -27.0931
rfingers 7.12502
rthumb 6.07541 -56.986
lclavicle -2.75814e-015 -6.80837e-015
lhumerus -27.3539 -8.76269 91.9124
lradius 32.2431
lwrist 17.4671
lhand -30.3427 -3.39549
lfingers 7.12502
lthumb -3.64843 26.553
rfemur -33.5207 -4.15997 21.7575
rtibia 33.4695
rfoot -13.5312 1.82637
rtoes 12.3489
lfemur -33.2446 8.19102 -18.4713
ltibia 33.2606
lfoot -12.7215 3.70177
ltoes 4.07061
31
root 0.0278256 17.3237 -15.1347 14.5948 -0.869118 -2.43321
lowerback 9.30074 -0.199699 0.654772
upperback 8.26308 -0.257985 1.51837
thorax 3.38908 -0.1458 1.22282
lowerneck -10.3162 0.650331 -0.902899
upperneck 24.3863 1.14984 -0.301698
head 9.36257 0.413935 0.175036
rclavicle -2.23633e-015 -9.54166e-015
rhumerus -28.704 -5.31392 -84.0802
rradius 34.9917
rwrist 18.0096
rhand -20.2154 -27.0492
rfingers 7.12502
rthumb 6.13187 -56.9405
lclavicle -2.23633e-015 -9.54166e-015
lhumerus -27.2742 -8.832 91.9051
lradius 32.2865
lwrist 18.089
lhand -30.4697 -3.6533
lfingers 7.12502
lthumb -3.77102 26.2931
rfemur -33.3592 -4.18456 21.7432
rtibia 33.348
rfoot -13.5166 1.84834
rtoes 12.436
lfemur -33.072 8.18607 -18.47
ltibia 33.1109
lfoot -12.6926 3.70626
ltoes 4.02216
32
root 0.0269421 17.3287 -15.1278 14.5417 -0.860517 -2.42022
lowerback 9.24816 -0.202751 0.650743
upperback 8.25749 -0.263126 1.52688
thorax 3.41216 -0.148771 1.23402
lowerneck -10.4139 0.653618 -0.904315
upperneck 24.5448 1.15713 -0.300441
head 9.4369 0.41598 0.177391
rclavicle 8.69683e-015 -6.95746e-016
rhumerus -28.6556 -5.21223 -84.1757
rradius 35.0248
rwrist 18.0172
rhand -20.1526 -26.9948
rfingers 7.12502
rthumb 6.19246 -56.8843
lclavicle 8.69683e-015 -6.95746e-016
lhumerus -27.2027 -8.90591 91.9009
lradius 32.3477
lwrist 18.8263
lhand -30.5174 -3.78021
lfingers 7.12502
lthumb -3.8171 26.1653
rfemur -33.2055 -4.2132 21.7302
rtibia 33.2296
rfoot -13.5039 1.87136
rtoes 12.5168
lfemur -32.9083 8.17774 -18.4688
ltibia 32.9661
lfoot -12.6659 3.71111
ltoes 3.98537
33
root 0.026426 17.3335 -15.1212 14.4926 -0.850847 -2.40891
lowerback 9.19815 -0.206398 0.651573
upperback 8.24814 -0.268671 1.536
thorax 3.42983 -0.151722 1.24314
lowerneck -10.5089 0.657706 -0.901835
upperneck 24.6993 1.16564 -0.303038
head 9.50958 0.418552 0.17788
rclavicle -2.33572e-015 -9.64106e-015
rhumerus -28.6085 -5.1197 -84.2665
rradius 35.0568
rwrist 18.0223
rhand -20.089 -26.9359
rfingers 7.12502
rthumb 6.25388 -56.8236
lclavicle -2.33572e-015 -9.64106e-015
lhumerus -27.1429 -8.98024 91.9026
lradius 32.4292
lwrist 19.6311
lhand -30.5215 -3.84522
lfingers 7.12502
lthumb -3.8211 26.1003
rfemur -33.0604 -4.24153 21.7185
rtibia 33.1147
rfoot -13.4917 1.89119
rtoes 12.5799
lfemur -32.7541 8.1665 -18.4668
ltibia 32.8272
lfoot -12.6397 3.71756
ltoes 3.95236
